<?xml version="1.0" standalone="no"?>
<!DOCTYPE svg PUBLIC "-//W3C//DTD SVG 20010904//EN" "http://www.w3.org/TR/2001/REC-SVG-20010904/DTD/svg10.dtd">
<svg version="1.0" xmlns="http://www.w3.org/2000/svg" width="181.000000pt" height="113.000000pt" viewBox="0 0 181.000000 113.000000" preserveAspectRatio="xMidYMid meet">
    <g transform="translate(0.000000,113.000000) scale(0.100000,-0.100000)" fill="#000000" stroke="none">
        <path
            d="M1035 1110 c13 -43 32 -73 84 -135 28 -32 51 -63 51 -67 0 -13 -38
            -24 -105 -33 -94 -11 -162 -41 -212 -93 -52 -55 -58 -53 -116 29 -21 30 -42
            55 -47 57 -15 5 1 -111 21 -155 13 -27 31 -47 54 -58 43 -20 46 -51 10 -85
            -18 -17 -22 -27 -15 -40 7 -12 4 -28 -7 -51 -23 -47 -4 -75 67 -100 67 -24 91
            -19 148 31 33 29 67 46 130 66 144 44 186 108 122 189 -49 62 -38 95 45 129
            114 48 102 88 -67 207 -55 39 -116 85 -135 102 -35 31 -36 31 -28 7z m81 -71
            c10 -12 45 -39 76 -61 64 -45 88 -76 88 -112 0 -35 -31 -52 -123 -65 -100 -14
            -97 -14 -97 8 0 25 19 39 61 47 47 9 79 31 79 54 0 11 -28 49 -61 85 -34 36
            -57 65 -52 65 6 0 18 -9 29 -21z m-66 -193 c0 -25 -31 -69 -74 -108 -89 -79
            -141 -178 -93 -178 8 0 22 -10 33 -21 19 -22 19 -22 -3 -10 -12 6 -39 11 -60
            12 -21 0 -47 4 -58 8 -19 8 -19 8 2 15 25 8 53 84 53 143 0 47 58 109 119 127
            47 15 81 20 81 12z"/>
        <path
            d="M110 945 l-25 -13 25 -6 c14 -3 34 -7 45 -8 11 -2 20 -11 20 -20 0
            -9 4 -20 8 -24 4 -4 7 -20 7 -35 0 -15 3 -34 6 -43 8 -20 53 -21 101 -1 46 19
            67 19 84 -1 12 -15 11 -18 -5 -28 -84 -48 -143 -143 -167 -266 -10 -54 -19
            -73 -54 -111 -62 -67 -77 -102 -84 -199 -6 -75 -10 -90 -39 -129 -17 -24 -32
            -48 -32 -53 0 -4 31 -8 69 -8 l70 0 -6 35 c-4 25 1 45 19 77 14 24 28 62 31
            86 3 24 14 53 24 64 16 18 26 20 97 14 73 -5 83 -4 123 20 l44 25 37 -29 c20
            -16 51 -36 68 -45 18 -9 34 -27 38 -40 3 -14 31 -50 63 -80 49 -48 57 -60 56
            -91 l-1 -36 94 0 c71 0 94 3 94 13 0 17 -54 68 -108 101 -48 30 -68 67 -52 97
            12 21 64 27 76 8 4 -7 49 -31 100 -55 51 -24 95 -48 99 -53 3 -6 9 -33 12 -61
            l6 -50 103 0 c72 0 104 4 104 12 0 6 -18 27 -41 47 -139 122 -198 185 -228
            243 -24 47 -27 57 -11 43 11 -10 22 -26 26 -37 5 -16 11 -18 37 -12 18 3 50
            15 71 25 22 11 55 19 73 19 44 0 199 -78 238 -120 17 -18 55 -45 86 -60 60
            -31 109 -80 109 -110 0 -45 9 -50 91 -50 110 0 107 14 -41 165 -53 55 -109
            121 -123 147 -15 25 -62 78 -106 118 -82 73 -89 84 -116 185 -17 60 -56 138
            -76 150 -12 8 -49 -22 -49 -40 0 -7 13 -29 30 -50 71 -89 21 -172 -130 -215
            -66 -19 -94 -33 -132 -67 -55 -48 -80 -53 -158 -27 -66 22 -84 43 -76 91 4 21
            7 53 7 72 0 24 7 40 25 53 30 24 31 46 2 57 -44 17 -88 80 -88 127 0 23 -3 25
            -22 20 -66 -19 -127 -28 -150 -23 -14 4 -46 27 -69 52 -56 59 -80 65 -120 31
            -55 -47 -94 -27 -83 42 5 34 3 42 -17 56 -28 19 -75 20 -109 1z"/>
    </g>
</svg>
